<?xml version="1.0" encoding="iso-8859-1"?>
<!-- Generator: Adobe Illustrator 19.0.0, SVG Export Plug-In . SVG Version: 6.00 Build 0)  -->
<svg version="1.1" id="Layer_1" xmlns="http://www.w3.org/2000/svg" xmlns:xlink="http://www.w3.org/1999/xlink" x="0px" y="0px"
	 viewBox="0 0 528.284 528.284" style="enable-background:new 0 0 528.284 528.284;" xml:space="preserve">
<g>
	<path style="fill:#71D1D1;" d="M409.611,505.315c0,4.221,3.434,7.657,7.657,7.657c4.221,0,7.655-3.435,7.655-7.657v-84.219h-15.312
		V505.315z"/>
	<rect x="362.303" y="0.612" style="fill:#FBB03B;" width="0.004" height="75.34"/>
	<path style="fill:#FBB03B;" d="M348.361,137.815c4.228,0,7.657,3.428,7.657,7.656s-3.428,7.656-7.657,7.656h-23.726v30.626h23.726
		c4.228,0,7.657,3.428,7.657,7.656s-3.428,7.656-7.657,7.656h-23.726v30.626h23.726c4.228,0,7.657,3.428,7.657,7.656
		s-3.428,7.656-7.657,7.656h-23.726v30.626h23.726c4.228,0,7.657,3.428,7.657,7.656c0,4.228-3.428,7.656-7.657,7.656h-23.726v30.625
		h23.726c4.228,0,7.657,3.428,7.657,7.656s-3.428,7.656-7.657,7.656h-23.726v122.5h23.726c4.228,0,7.657,3.428,7.657,7.656
		s-3.428,7.656-7.657,7.656h-23.726v38.281h70.975c-0.85-2.396-1.313-4.974-1.313-7.657V53.596h-69.663v84.219H348.361z"/>
	<rect x="286.352" style="fill:#FCC062;" width="0.004" height="76.563"/>
	<rect x="248.072" y="290.94" style="fill:#FCC062;" width="76.563" height="30.625"/>
	<path style="fill:#FCC062;" d="M248.829,91.877c4.228,0,7.656,3.428,7.656,7.657c0,4.229-3.428,7.656-7.656,7.656h-0.757v30.625
		h76.563V53.596h-76.563v38.281H248.829z"/>
	<path style="fill:#FCC062;" d="M256.486,474.69c-4.228,0-7.656-3.428-7.656-7.656s3.428-7.656,7.656-7.656h68.149v-122.5h-76.563
		v176.094h76.563V474.69H256.486z"/>
	<rect x="248.072" y="245.002" style="fill:#FCC062;" width="76.563" height="30.626"/>
	<rect x="248.072" y="153.127" style="fill:#FCC062;" width="76.563" height="30.626"/>
	<rect x="248.072" y="199.064" style="fill:#FCC062;" width="76.563" height="30.626"/>
	<rect x="96.221" y="38.28" style="fill:#FDD089;" width="151.85" height="0.004"/>
	<path style="fill:#FDD089;" d="M111.016,512.971h137.055V336.878h-6.899c-4.228,0-7.656-3.428-7.656-7.656s3.428-7.656,7.656-7.656
		h6.899V290.94h-98.774c-4.228,0-7.656-3.428-7.656-7.656c0-4.228,3.428-7.656,7.656-7.656h98.774v-30.626h-98.774
		c-4.228,0-7.656-3.428-7.656-7.656s3.428-7.656,7.656-7.656h98.774v-30.626h-98.774c-4.228,0-7.656-3.428-7.656-7.656
		s3.428-7.656,7.656-7.656h98.774v-30.626h-98.774c-4.228,0-7.656-3.428-7.656-7.656s3.428-7.656,7.656-7.656h98.774V107.19h-98.774
		c-4.228,0-7.657-3.428-7.657-7.656s3.428-7.657,7.657-7.657h98.774V53.596H103.36v451.719
		C103.36,509.536,106.795,512.971,111.016,512.971z M179.923,344.534c21.108,0,38.281,17.173,38.281,38.281
		c0,8.6-2.852,16.546-7.658,22.944c0,0.009,0.001,0.017,0.001,0.025v76.562c0,3.097-1.865,5.888-4.726,7.073
		c-2.861,1.184-6.154,0.53-8.344-1.66l-17.555-17.555l-17.555,17.555c-1.465,1.465-3.423,2.243-5.415,2.243
		c-0.987,0-1.981-0.19-2.928-0.583c-2.861-1.185-4.726-3.977-4.726-7.073v-76.562c0-0.009,0.001-0.017,0.001-0.026
		c-4.806-6.398-7.657-14.344-7.657-22.943C141.642,361.707,158.815,344.534,179.923,344.534z"/>
	<path style="fill:#71D1D1;" d="M195.116,382.99c0,11.181-7.99,20.491-18.57,22.544c1.103,0.163,2.23,0.25,3.377,0.25
		c12.665,0,22.969-10.304,22.969-22.969s-10.304-22.969-22.969-22.969c-1.501,0-2.967,0.149-4.388,0.425
		C186.614,361.909,195.116,371.456,195.116,382.99z"/>
	<path style="fill:#D0F0F0;" d="M195.116,382.99c0-11.534-8.502-21.08-19.581-22.719c-10.572,2.054-18.581,11.38-18.581,22.544
		c0,11.517,8.522,21.08,19.592,22.719C187.126,403.48,195.116,394.17,195.116,382.99z"/>
	<path style="fill:#A0E0E0;" d="M164.61,417.889v45.973l9.899-9.899c2.99-2.99,7.838-2.99,10.827,0l9.899,9.898V417.89
		c-4.693,2.057-9.87,3.206-15.313,3.206C174.48,421.096,169.303,419.946,164.61,417.889z"/>
	<path d="M432.579,405.784h-22.969V45.94c0-4.228-3.428-7.656-7.656-7.656h-1.979h-75.34h-76.563H96.221h-0.517
		c-4.228,0-7.657,3.428-7.657,7.656v459.375c0,12.665,10.304,22.969,22.969,22.969h306.251c12.664,0,22.969-10.304,22.969-22.969
		V413.44C440.237,409.211,436.807,405.784,432.579,405.784z M424.923,505.315c0,4.221-3.434,7.657-7.655,7.657
		c-4.222,0-7.657-3.435-7.657-7.657v-84.219h15.312V505.315z M103.36,53.596h144.711h76.563h69.663v451.719
		c0,2.683,0.462,5.261,1.313,7.657h-70.975h-76.563H111.016c-4.221,0-7.656-3.435-7.656-7.657V53.596z"/>
	<path style="fill:#FFFFFF;" d="M248.83,467.034c0,4.228,3.428,7.656,7.656,7.656h68.149h23.726c4.228,0,7.657-3.428,7.657-7.656
		s-3.428-7.656-7.657-7.656h-23.726h-68.149C252.257,459.377,248.83,462.806,248.83,467.034z"/>
	<path d="M149.298,405.784v76.562c0,3.097,1.865,5.888,4.726,7.073c0.947,0.393,1.942,0.583,2.928,0.583
		c1.992,0,3.951-0.778,5.415-2.243l17.555-17.555l17.555,17.555c2.19,2.189,5.482,2.844,8.344,1.66
		c2.861-1.185,4.726-3.977,4.726-7.073v-76.562c0-0.008-0.001-0.016-0.001-0.025c4.806-6.398,7.658-14.344,7.658-22.944
		c0-21.108-17.173-38.281-38.281-38.281s-38.281,17.173-38.281,38.281c0,8.6,2.852,16.545,7.657,22.943
		C149.299,405.767,149.298,405.775,149.298,405.784z M202.892,382.815c0,12.665-10.304,22.969-22.969,22.969
		c-1.147,0-2.275-0.087-3.377-0.25c-11.069-1.639-19.592-11.201-19.592-22.719c0-11.164,8.008-20.489,18.581-22.544
		c1.421-0.276,2.887-0.425,4.388-0.425C192.588,359.846,202.892,370.15,202.892,382.815z M195.235,463.862l-9.899-9.898
		c-2.99-2.99-7.838-2.99-10.827,0l-9.899,9.899V417.89c4.693,2.057,9.87,3.206,15.313,3.206c5.443,0,10.62-1.149,15.313-3.206
		v45.972H195.235z"/>
	<path d="M256.486,99.533c0-4.228-3.428-7.657-7.656-7.657h-0.757h-98.774c-4.228,0-7.657,3.428-7.657,7.657
		s3.428,7.656,7.657,7.656h98.774h0.757C253.057,107.19,256.486,103.761,256.486,99.533z"/>
	<path d="M348.361,153.127c4.228,0,7.657-3.428,7.657-7.656s-3.428-7.656-7.657-7.656h-23.726h-76.563h-98.774
		c-4.228,0-7.656,3.428-7.656,7.656s3.428,7.656,7.656,7.656h98.774h76.563H348.361z"/>
	<path d="M348.361,199.064c4.228,0,7.657-3.428,7.657-7.656s-3.428-7.656-7.657-7.656h-23.726h-76.563h-98.774
		c-4.228,0-7.656,3.428-7.656,7.656s3.428,7.656,7.656,7.656h98.774h76.563H348.361z"/>
	<path d="M348.361,245.002c4.228,0,7.657-3.428,7.657-7.656s-3.428-7.656-7.657-7.656h-23.726h-76.563h-98.774
		c-4.228,0-7.656,3.428-7.656,7.656s3.428,7.656,7.656,7.656h98.774h76.563H348.361z"/>
	<path d="M348.361,290.94c4.228,0,7.657-3.428,7.657-7.656c0-4.228-3.428-7.656-7.657-7.656h-23.726h-76.563h-98.774
		c-4.228,0-7.656,3.428-7.656,7.656c0,4.228,3.428,7.656,7.656,7.656h98.774h76.563H348.361z"/>
	<path d="M348.361,336.878c4.228,0,7.657-3.428,7.657-7.656s-3.428-7.656-7.657-7.656h-23.726h-76.563h-6.899
		c-4.228,0-7.656,3.428-7.656,7.656s3.428,7.656,7.656,7.656h6.899h76.563H348.361z"/>
</g>
<g>
</g>
<g>
</g>
<g>
</g>
<g>
</g>
<g>
</g>
<g>
</g>
<g>
</g>
<g>
</g>
<g>
</g>
<g>
</g>
<g>
</g>
<g>
</g>
<g>
</g>
<g>
</g>
<g>
</g>
</svg>
