<?xml version="1.0" encoding="iso-8859-1"?>
<!-- Generator: Adobe Illustrator 19.0.0, SVG Export Plug-In . SVG Version: 6.00 Build 0)  -->
<svg version="1.1" id="Layer_1" xmlns="http://www.w3.org/2000/svg" xmlns:xlink="http://www.w3.org/1999/xlink" x="0px" y="0px"
	 viewBox="0 0 300.725 300.725" style="enable-background:new 0 0 300.725 300.725;" xml:space="preserve">
<g>
	<g id="open-hang-sign-light-shop_1_">
		<path style="fill:#3ADDBE;" d="M28.193,256.086H281.93c7.772,0,14.096-6.325,14.096-14.097V157.41
			c0-7.772-6.325-14.096-14.096-14.096H28.193c-7.772,0-14.097,6.325-14.097,14.096v84.579
			C14.097,249.762,20.421,256.086,28.193,256.086z M206.749,171.507c0-2.18,1.499-4.074,3.618-4.572
			c2.143-0.498,4.309,0.522,5.286,2.472l19.289,38.582v-41.181h9.398v61.085c0,2.18-1.499,4.074-3.618,4.572
			c-0.362,0.085-0.724,0.127-1.081,0.127c-1.753,0-3.393-0.977-4.205-2.598l-19.289-38.582v41.181h-9.398V171.507z M164.459,171.507
			c0-2.594,2.105-4.699,4.699-4.699h28.193v9.398h-23.494v18.795h23.494v9.398h-23.494v18.795h23.494v9.398h-28.193
			c-2.594,0-4.699-2.105-4.699-4.699L164.459,171.507L164.459,171.507z M117.471,171.507c0-2.594,2.105-4.699,4.699-4.699h14.097
			c10.366,0,18.795,8.43,18.795,18.795c0,10.366-8.43,18.795-18.795,18.795h-9.398v28.193h-9.398
			C117.471,232.591,117.471,171.507,117.471,171.507z M70.483,185.604c0-10.366,8.43-18.795,18.795-18.795
			s18.795,8.43,18.795,18.795v28.193c0,10.366-8.43,18.795-18.795,18.795s-18.795-8.43-18.795-18.795V185.604z"/>
		<path style="fill:#3ADDBE;" d="M89.278,223.195c5.183,0,9.398-4.215,9.398-9.398v-28.193c0-5.183-4.215-9.398-9.398-9.398
			s-9.398,4.215-9.398,9.398v28.193C79.88,218.98,84.095,223.195,89.278,223.195z"/>
		<path style="fill:#3ADDBE;" d="M145.664,185.604c0-5.183-4.215-9.398-9.398-9.398h-9.398v18.795h9.398
			C141.449,195.002,145.664,190.787,145.664,185.604z"/>
		<circle style="fill:#FFFFFF;" cx="155.062" cy="58.735" r="4.699"/>
		<path d="M277.231,129.218h-31.327l-86.233-64.675c2.913-2.584,4.788-6.315,4.788-10.507c0-7.772-6.325-14.097-14.097-14.097
			s-14.096,6.325-14.096,14.097c0,4.191,1.875,7.922,4.788,10.507l-86.233,64.675H23.494C10.539,129.218,0,139.757,0,152.712v84.579
			c0,12.955,10.539,23.494,23.494,23.494h253.737c12.955,0,23.494-10.539,23.494-23.494v-84.579
			C300.725,139.757,290.186,129.218,277.231,129.218z M150.363,49.338c2.589,0,4.699,2.11,4.699,4.699
			c0,2.589-2.11,4.699-4.699,4.699s-4.699-2.11-4.699-4.699C145.664,51.448,147.774,49.338,150.363,49.338z M150.363,69.308
			l79.88,59.91H70.483L150.363,69.308z M291.328,237.291c0,7.772-6.325,14.097-14.096,14.097H23.494
			c-7.772,0-14.097-6.325-14.097-14.097v-84.579c0-7.772,6.325-14.097,14.097-14.097h253.737c7.772,0,14.096,6.325,14.096,14.097
			v84.579H291.328z"/>
		<path d="M159.76,166.809v56.386c0,2.594,2.105,4.699,4.699,4.699h28.193v-9.398h-23.494V199.7h23.494v-9.398h-23.494v-18.795
			h23.494v-9.398h-28.193C161.865,162.11,159.76,164.215,159.76,166.809z"/>
		<path d="M230.243,203.29l-19.289-38.582c-0.973-1.95-3.144-2.97-5.286-2.472c-2.119,0.498-3.618,2.392-3.618,4.572v61.085h9.398
			v-41.181l19.289,38.582c0.813,1.621,2.453,2.598,4.205,2.598c0.357,0,0.719-0.042,1.081-0.127
			c2.119-0.498,3.618-2.392,3.618-4.572V162.11h-9.398V203.29z"/>
		<path d="M84.579,162.11c-10.366,0-18.795,8.43-18.795,18.795v28.193c0,10.366,8.43,18.795,18.795,18.795
			c10.366,0,18.795-8.43,18.795-18.795v-28.193C103.374,170.54,94.945,162.11,84.579,162.11z M93.977,209.098
			c0,5.183-4.215,9.398-9.398,9.398s-9.398-4.215-9.398-9.398v-28.193c0-5.183,4.215-9.398,9.398-9.398s9.398,4.215,9.398,9.398
			V209.098z"/>
		<path d="M131.567,162.11H117.47c-2.594,0-4.699,2.105-4.699,4.699v61.085h9.398V199.7h9.398c10.366,0,18.795-8.43,18.795-18.795
			C150.363,170.539,141.933,162.11,131.567,162.11z M131.567,190.303h-9.398v-18.795h9.398c5.183,0,9.398,4.215,9.398,9.398
			C140.965,186.088,136.75,190.303,131.567,190.303z"/>
	</g>
	<g id="Layer_1_18_">
	</g>
</g>
<g>
</g>
<g>
</g>
<g>
</g>
<g>
</g>
<g>
</g>
<g>
</g>
<g>
</g>
<g>
</g>
<g>
</g>
<g>
</g>
<g>
</g>
<g>
</g>
<g>
</g>
<g>
</g>
<g>
</g>
</svg>
