<?xml version="1.0" encoding="iso-8859-1"?>
<!-- Generator: Adobe Illustrator 19.0.0, SVG Export Plug-In . SVG Version: 6.00 Build 0)  -->
<svg version="1.1" id="Layer_1" xmlns="http://www.w3.org/2000/svg" xmlns:xlink="http://www.w3.org/1999/xlink" x="0px" y="0px"
	 viewBox="0 0 495.135 495.135" style="enable-background:new 0 0 495.135 495.135;" xml:space="preserve">
<g>
	<path style="fill:#2B9B07;" d="M230.105,91.364h43.016c0,27.782,22.607,50.404,50.404,50.404c27.79,0,50.404-22.623,50.404-50.404
		h43c0,51.515-41.905,93.412-93.412,93.412C272.002,184.777,230.105,142.872,230.105,91.364z"/>
	<path style="fill:#2B9B07;" d="M78.198,91.364h43c0,27.782,22.623,50.404,50.412,50.404s50.412-22.623,50.412-50.404h43
		c0,51.515-41.897,93.412-93.412,93.412C120.103,184.777,78.198,142.872,78.198,91.364z"/>
</g>
<path style="fill:#593022;" d="M483.875,477.538c0,6.199-5.018,11.232-11.225,11.232H22.485c-6.215,0-11.225-5.033-11.225-11.232
	V291.58c0-6.207,5.018-11.232,11.225-11.232h450.158c6.215,0,11.225,5.033,11.225,11.232v185.958H483.875z"/>
<path style="fill:#603526;" d="M483.875,291.58v185.958c0,6.199-5.018,11.232-11.225,11.232H22.485"/>
<path style="fill:#724330;" d="M11.26,291.58c0-6.207,5.018-11.232,11.225-11.232h450.158c6.215,0,11.225,5.033,11.225,11.232
	v185.958c0,6.199-5.018,11.232-11.225,11.232"/>
<path style="fill:#C17E52;" d="M351.772,270.572c0,6.207-5.025,11.24-11.225,11.24H154.581c-6.191,0-11.225-5.033-11.225-11.24
	V84.622c0-6.199,5.033-11.232,11.225-11.232h185.966c6.199,0,11.225,5.033,11.225,11.232V270.572z"/>
<path style="fill:#B56841;" d="M351.772,84.622v185.951c0,6.207-5.025,11.24-11.225,11.24H154.581"/>
<path style="fill:#A86743;" d="M143.356,84.622c0-6.199,5.033-11.232,11.225-11.232h185.966c6.199,0,11.225,5.033,11.225,11.232
	v185.951c0,6.207-5.025,11.24-11.225,11.24"/>
<path style="fill:#96CE1B;" d="M277.287,483.336c0,6.506-3.3,11.8-7.349,11.8h-44.733c-4.064,0-7.357-5.285-7.357-11.8V80.219
	c0-6.514,3.293-11.792,7.357-11.792h44.733c4.049,0,7.349,5.278,7.349,11.792V483.336z"/>
<g>
	<path style="fill:#73B708;" d="M217.848,80.219c0-6.514,3.293-11.792,7.357-11.792h44.733c4.049,0,7.349,5.278,7.349,11.792
		v403.117c0,6.506-3.3,11.8-7.349,11.8"/>
	<path style="fill:#73B708;" d="M265.031,93.412h-43.016c0-27.79-22.607-50.404-50.397-50.404s-50.412,22.623-50.412,50.404h-43
		C78.206,41.897,120.111,0,171.626,0C223.134,0,265.031,41.897,265.031,93.412z"/>
	<path style="fill:#73B708;" d="M416.937,93.412h-43c0-27.79-22.623-50.404-50.404-50.404c-27.806,0-50.42,22.623-50.42,50.404h-43
		C230.112,41.897,272.01,0,323.533,0C375.032,0,416.937,41.897,416.937,93.412z"/>
</g>
<g>
	<path style="fill:#C17E52;" d="M375.127,454.278c0,2.032-1.631,3.679-3.671,3.679l0,0c-2.024,0-3.663-1.646-3.663-3.679V388.23
		c0-2.032,1.638-3.671,3.663-3.671l0,0c2.04,0,3.671,1.638,3.671,3.671V454.278z"/>
	<path style="fill:#C17E52;" d="M389.077,454.278c0,2.032-1.646,3.679-3.671,3.679l0,0c-2.024,0-3.663-1.646-3.663-3.679V388.23
		c0-2.032,1.638-3.671,3.663-3.671l0,0c2.024,0,3.671,1.638,3.671,3.671V454.278z"/>
	<path style="fill:#C17E52;" d="M403.027,454.278c0,2.032-1.646,3.679-3.671,3.679l0,0c-2.017,0-3.663-1.646-3.663-3.679V388.23
		c0-2.032,1.646-3.671,3.663-3.671l0,0c2.024,0,3.671,1.638,3.671,3.671V454.278z"/>
	<path style="fill:#C17E52;" d="M416.969,454.278c0,2.032-1.631,3.679-3.671,3.679l0,0c-2.009,0-3.655-1.646-3.655-3.679V388.23
		c0-2.032,1.646-3.671,3.655-3.671l0,0c2.04,0,3.671,1.638,3.671,3.671V454.278z"/>
	<path style="fill:#C17E52;" d="M430.927,454.278c0,2.032-1.646,3.679-3.671,3.679l0,0c-2.024,0-3.663-1.646-3.663-3.679V388.23
		c0-2.032,1.638-3.671,3.663-3.671l0,0c2.024,0,3.671,1.638,3.671,3.671V454.278z"/>
	<path style="fill:#C17E52;" d="M444.877,454.278c0,2.032-1.646,3.679-3.671,3.679l0,0c-2.024,0-3.671-1.646-3.671-3.679V388.23
		c0-2.032,1.646-3.671,3.671-3.671l0,0c2.024,0,3.671,1.638,3.671,3.671V454.278z"/>
	<path style="fill:#C17E52;" d="M458.827,454.278c0,2.032-1.638,3.679-3.679,3.679l0,0c-2.017,0-3.655-1.646-3.655-3.679V388.23
		c0-2.032,1.638-3.671,3.655-3.671l0,0c2.032,0,3.679,1.638,3.679,3.671V454.278z"/>
</g>
<g>
</g>
<g>
</g>
<g>
</g>
<g>
</g>
<g>
</g>
<g>
</g>
<g>
</g>
<g>
</g>
<g>
</g>
<g>
</g>
<g>
</g>
<g>
</g>
<g>
</g>
<g>
</g>
<g>
</g>
</svg>
