<?xml version="1.0" encoding="iso-8859-1"?>
<!-- Generator: Adobe Illustrator 17.1.0, SVG Export Plug-In . SVG Version: 6.00 Build 0)  -->
<!DOCTYPE svg PUBLIC "-//W3C//DTD SVG 1.1//EN" "http://www.w3.org/Graphics/SVG/1.1/DTD/svg11.dtd">
<svg version="1.1" id="Capa_1" xmlns="http://www.w3.org/2000/svg" xmlns:xlink="http://www.w3.org/1999/xlink" x="0px" y="0px"
	 viewBox="0 0 191.824 191.824" style="enable-background:new 0 0 191.824 191.824;" xml:space="preserve">
<path d="M186.824,0h-45.456H95.912H50.457H5C2.238,0,0,2.239,0,5v45.456v45.456v45.456v45.456c0,2.761,2.238,5,5,5h45.457h45.455
	h45.456h45.456c2.762,0,5-2.239,5-5v-45.456V95.912V50.456V5C191.824,2.239,189.586,0,186.824,0z M10,55.456h35.457v35.456H10
	V55.456z M136.368,90.912h-35.456V55.456h35.456V90.912z M55.457,55.456h35.455v35.456H55.457V55.456z M55.457,100.912h35.455
	v35.456H55.457V100.912z M100.912,100.912h35.456v35.456h-35.456V100.912z M136.368,45.456h-35.456V10h35.456V45.456z
	 M55.457,146.368h35.455v35.456H55.457V146.368z M100.912,146.368h35.456v35.456h-35.456V146.368z M146.368,146.368h35.456v35.456
	h-35.456V146.368z M146.368,136.368v-35.456h35.456v35.456H146.368z M146.368,45.456V10h35.456v35.456H146.368z M10,10h35.457
	v35.456H10V10z M10,146.368h35.457v35.456H10V146.368z M40.817,19.287v4.5c0,2.761-2.238,5-5,5c-2.762,0-5-2.239-5-5v-4.5
	c0-2.761,2.238-5,5-5C38.579,14.287,40.817,16.526,40.817,19.287z M121.567,23.787v-4.5c0-2.761,2.238-5,5-5c2.762,0,5,2.239,5,5
	v4.5c0,2.761-2.238,5-5,5C123.806,28.787,121.567,26.548,121.567,23.787z M177.567,19.287v4.5c0,2.761-2.238,5-5,5s-5-2.239-5-5
	v-4.5c0-2.761,2.238-5,5-5S177.567,16.526,177.567,19.287z M85.567,65.454v4.5c0,2.761-2.238,5-5,5c-2.762,0-5-2.239-5-5v-4.5
	c0-2.761,2.238-5,5-5C83.329,60.454,85.567,62.692,85.567,65.454z M121.567,69.954v-4.5c0-2.761,2.238-5,5-5c2.762,0,5,2.239,5,5
	v4.5c0,2.761-2.238,5-5,5C123.806,74.954,121.567,72.715,121.567,69.954z M131.567,110.621v4.5c0,2.761-2.238,5-5,5
	c-2.762,0-5-2.239-5-5v-4.5c0-2.761,2.238-5,5-5C129.329,105.621,131.567,107.859,131.567,110.621z M85.567,110.621v4.5
	c0,2.761-2.238,5-5,5c-2.762,0-5-2.239-5-5v-4.5c0-2.761,2.238-5,5-5C83.329,105.621,85.567,107.859,85.567,110.621z
	 M85.567,156.787v4.5c0,2.761-2.238,5-5,5c-2.762,0-5-2.239-5-5v-4.5c0-2.761,2.238-5,5-5
	C83.329,151.787,85.567,154.026,85.567,156.787z M40.817,65.454v4.5c0,2.761-2.238,5-5,5c-2.762,0-5-2.239-5-5v-4.5
	c0-2.761,2.238-5,5-5C38.579,60.454,40.817,62.692,40.817,65.454z M40.817,156.787v4.5c0,2.761-2.238,5-5,5c-2.762,0-5-2.239-5-5
	v-4.5c0-2.761,2.238-5,5-5C38.579,151.787,40.817,154.026,40.817,156.787z M131.567,156.787v4.5c0,2.761-2.238,5-5,5
	c-2.762,0-5-2.239-5-5v-4.5c0-2.761,2.238-5,5-5C129.329,151.787,131.567,154.026,131.567,156.787z M176.734,110.621v4.5
	c0,2.761-2.238,5-5,5c-2.762,0-5-2.239-5-5v-4.5c0-2.761,2.238-5,5-5C174.496,105.621,176.734,107.859,176.734,110.621z
	 M176.734,156.787v4.5c0,2.761-2.238,5-5,5c-2.762,0-5-2.239-5-5v-4.5c0-2.761,2.238-5,5-5
	C174.496,151.787,176.734,154.026,176.734,156.787z"/>
<g>
</g>
<g>
</g>
<g>
</g>
<g>
</g>
<g>
</g>
<g>
</g>
<g>
</g>
<g>
</g>
<g>
</g>
<g>
</g>
<g>
</g>
<g>
</g>
<g>
</g>
<g>
</g>
<g>
</g>
</svg>
